<svg version="1.1" id="holidays" xmlns="http://www.w3.org/2000/svg" x="0" y="0" viewBox="-235 162 128 128" style="enable-background:new -235 162 128 128" xml:space="preserve"><style>.st0{display:none}.st1{display:inline}.st2,.st3{fill:#0c0c0c}.st3{display:inline}</style><path class="st2" d="M-187 226.7h-8c-.5 2.6-.9 5.3-1.1 8h8c.2-2.8.6-5.5 1.1-8zm67.5-47-1.7-1-5 8.7 1.7 1 5-8.7zm-89.1 63.1c.8 1.1 1.6 2.3 2.3 3.5l4.1-2.1c-.7-1.3-1.6-2.5-2.4-3.6l-4 2.2zm12.3-3.9c0 2.7.2 5.3.4 7.8h8.1c-.3-2.6-.5-5.3-.5-8h-8v.2zm-2.2 12.8c-.7-1.7-1.5-3.4-2.2-4.9l-4.1 2.1c.8 1.6 1.5 3.3 2.3 5l4-2.2zm91.5-54.4-.5-1.9-9.7 2.6.5 1.9 9.7-2.6zm-103.1 43.6 4.1-2.1c-3-3.6-5.9-6-5.9-6s2.5-.9 5.7-1.7c4-1 8.6-3.6 8.7-3.3 0 0-1.4-1.6-4.7-1.4-4.6.3-6.2.6-6.2.6l6.1-8.3s-3.5 1.2-6.7 2.2c-3 .9-3.7 5.1-3.7 5.1s-.8-2-3.9-4.3c-3.3-2.4-9.6-3.5-9.6-3.5s4 3.8 5.8 6.6c1 1.5.4 2.7.4 2.7s-3.3-.4-5.5.1c-3.5.7-6.4 2.4-6.4 2.4l6.3 1.4-9.4 7s2.6.6 5.5-.1c4.2-.9 8.4-3.4 8.4-3.4s-1.3 4.2-1.7 7.5c-.3 2 1.2 4.2 1.2 4.2s2.2-2.6 3.7-5.6c1.4-2.9 2-6.2 2-6.2s2.8 2.5 5.8 6.1zm25.3 22c-.6-2.4-1.7-6.8-2.5-12.1h-8.1c.8 5.3 1.9 9.8 2.5 12.2-.5 0-.9.1-1.3.1-.6-1.7-1.9-5.2-3.4-8.9l-4.1 1.8c1.3 3.2 2.4 6.1 2.9 7.6-10.1 1.6-15.6 5.7-15.6 11.3h52.2c0-6.7-8.1-11.4-22.6-12zm59.1-73c-7.7-4.4-17.5-1.8-21.9 5.9-4.4 7.7-1.8 17.5 5.9 21.9 7.7 4.4 17.5 1.8 21.9-5.9 4.4-7.7 1.7-17.5-5.9-21.9zm2.4 19.9c-3.3 5.8-10.7 7.7-16.5 4.4s-7.7-10.7-4.4-16.5c3.3-5.8 10.7-7.7 16.5-4.4 5.7 3.4 7.7 10.8 4.4 16.5zm-7.4 11 2.6 9.7 1.9-.5-2.6-9.7-1.9.5zm11.8-6 8.7 5 1-1.7-8.7-5-1 1.7zm-42.3-4.4.5 1.9 9.7-2.6-.5-1.9-9.7 2.6zm3.3-20.4-1 1.7 8.7 5 1-1.7-8.7-5zm9.1 36.9 1.7 1 5-8.7-1.7-1-5 8.7zm-13.4-28.3c-4-1.8-12 0-12 0s-.1-2.6 2-4c3.7-2.5 10.5-4.4 10.5-4.4s-6.7-3.3-12.6-1.6c-3.7 1-8 4-8 4s-1.8-6.3-6-8c-5.3-2.2-20.1 0-20.1 0s8.2 1.9 14.1 6c4.8 3.3 2 4 2 4s-6.7-1-12 0c-5.6 1.1-12 10-12 10s7.5-2.6 12-2c3.3.4 4 2 4 2s-1.7.4-8 4c-5 2.8-4 8-4 8-.1-.7 5-2.3 12-4 5.5-1.4 10-2 10-2s-2.1 5-3.8 12h8c1.7-7 3.9-12 3.9-12s3.6.7 8 4c4.7 3.5 8 8 8 8s2-7.2 0-10c-3.3-4.9-8-6-8-6s.6-.8 8-2c3.2-.5 12 0 12 0s-4-4.3-8-6zm24.1-12.7-2.6-9.7-1.9.5 2.6 9.7 1.9-.5z" id="tree"/></svg>